<svg width="40" height="40" viewBox="0 0 40 40" fill="none" xmlns="http://www.w3.org/2000/svg">
<path d="M22.2012 9.91614H17.7988V10.684H22.2012V9.91614Z" fill="#48ACDE" stroke="#48ACDE"/>
<path d="M21.5955 6.89578C21.7555 6.89578 21.909 6.959 22.0226 7.07167C22.1362 7.18435 22.2007 7.33735 22.202 7.49734V10.684H22.1965L25.5434 15.6409C25.8826 16.1413 26.065 16.7316 26.0673 17.3362V31.4002C26.0673 32.3244 25.3087 33.1042 24.3845 33.1042H15.6176C14.6934 33.1042 13.9348 32.3244 13.9348 31.4002V17.3384C13.9366 16.7328 14.119 16.1416 14.4588 15.6403L17.8051 10.684H17.7996V7.49734C17.8009 7.33735 17.8654 7.18435 17.979 7.07167C18.0926 6.959 18.2461 6.89578 18.4061 6.89578H21.5955ZM21.5955 6H18.4066C18.0102 5.99984 17.6298 6.1564 17.3483 6.43555C17.0668 6.7147 16.907 7.0938 16.9038 7.49023V10.4182L13.7172 15.1377C13.2766 15.7863 13.0404 16.5521 13.0391 17.3362V31.4002C13.0389 32.0843 13.3089 32.7408 13.7905 33.2267C14.0278 33.4713 14.3117 33.6658 14.6256 33.7987C14.9394 33.9315 15.2768 34 15.6176 34H24.384C24.7247 33.9999 25.0619 33.9314 25.3757 33.7986C25.6894 33.6657 25.9733 33.4713 26.2105 33.2267C26.6921 32.7408 26.9622 32.0843 26.962 31.4002V17.3356C26.9605 16.5524 26.7247 15.7875 26.2849 15.1394L23.0977 10.4182V7.49023C23.0946 7.0939 22.9349 6.71487 22.6535 6.43574C22.3721 6.15661 21.9918 5.99999 21.5955 6Z" fill="#48ACDE" stroke="#48ACDE"/>
<path d="M40 2C40 0.895431 39.1046 0 38 0H2C0.895431 0 0 0.895431 0 2V38C0 39.1046 0.895431 40 2 40H38C39.1046 40 40 39.1046 40 38V2ZM38.3333 36.3333C38.3333 37.4379 37.4379 38.3333 36.3333 38.3333H3.66667C2.5621 38.3333 1.66667 37.4379 1.66667 36.3333V3.66667C1.66667 2.5621 2.5621 1.66667 3.66667 1.66667H36.3333C37.4379 1.66667 38.3333 2.5621 38.3333 3.66667V36.3333Z" fill="#48ACDE"/>
</svg>
