<svg width="58" height="19" viewBox="0 0 58 19" fill="none" xmlns="http://www.w3.org/2000/svg">
<path d="M5.64844 16.4649C6.42188 16.4649 7.09766 16.2305 7.67578 15.7617C8.25391 15.293 8.57422 14.7071 8.63672 14.0039H10.6875C10.6484 14.7305 10.3984 15.4219 9.9375 16.0782C9.47656 16.7344 8.85938 17.2578 8.08594 17.6485C7.32031 18.0391 6.50781 18.2344 5.64844 18.2344C3.92188 18.2344 2.54688 17.6602 1.52344 16.5117C0.507812 15.3555 0 13.7774 0 11.7774V11.4141C0 10.1797 0.226562 9.08206 0.679688 8.12112C1.13281 7.16019 1.78125 6.41409 2.625 5.88284C3.47656 5.35159 4.48047 5.08597 5.63672 5.08597C7.05859 5.08597 8.23828 5.51175 9.17578 6.36331C10.1211 7.21487 10.625 8.32034 10.6875 9.67972H8.63672C8.57422 8.85941 8.26172 8.18753 7.69922 7.66409C7.14453 7.13284 6.45703 6.86722 5.63672 6.86722C4.53516 6.86722 3.67969 7.26566 3.07031 8.06253C2.46875 8.85159 2.16797 9.99612 2.16797 11.4961V11.9063C2.16797 13.3672 2.46875 14.4922 3.07031 15.2813C3.67188 16.0703 4.53125 16.4649 5.64844 16.4649Z" fill="black"/>
<path d="M20.9531 18C20.8281 17.75 20.7266 17.3047 20.6484 16.6641C19.6406 17.711 18.4375 18.2344 17.0391 18.2344C15.7891 18.2344 14.7617 17.8828 13.957 17.1797C13.1602 16.4688 12.7617 15.5703 12.7617 14.4844C12.7617 13.1641 13.2617 12.1407 14.2617 11.4141C15.2695 10.6797 16.6836 10.3125 18.5039 10.3125H20.6133V9.31644C20.6133 8.55862 20.3867 7.95706 19.9336 7.51175C19.4805 7.05862 18.8125 6.83206 17.9297 6.83206C17.1562 6.83206 16.5078 7.02737 15.9844 7.418C15.4609 7.80862 15.1992 8.28128 15.1992 8.83597H13.0195C13.0195 8.20316 13.2422 7.59378 13.6875 7.00784C14.1406 6.41409 14.75 5.94534 15.5156 5.60159C16.2891 5.25784 17.1367 5.08597 18.0586 5.08597C19.5195 5.08597 20.6641 5.45316 21.4922 6.18753C22.3203 6.91409 22.75 7.918 22.7812 9.19925V15.0352C22.7812 16.1992 22.9297 17.125 23.2266 17.8125V18H20.9531ZM17.3555 16.3477C18.0352 16.3477 18.6797 16.1719 19.2891 15.8203C19.8984 15.4688 20.3398 15.0117 20.6133 14.4492V11.8477H18.9141C16.2578 11.8477 14.9297 12.625 14.9297 14.1797C14.9297 14.8594 15.1562 15.3907 15.6094 15.7735C16.0625 16.1563 16.6445 16.3477 17.3555 16.3477Z" fill="black"/>
<path d="M32.3086 7.26566C31.9805 7.21097 31.625 7.18362 31.2422 7.18362C29.8203 7.18362 28.8555 7.78909 28.3477 9.00003V18H26.1797V5.32034H28.2891L28.3242 6.78519C29.0352 5.65237 30.043 5.08597 31.3477 5.08597C31.7695 5.08597 32.0898 5.14066 32.3086 5.25003V7.26566Z" fill="black"/>
<path d="M45.0469 11.8008C45.0469 13.7383 44.6016 15.2969 43.7109 16.4766C42.8203 17.6485 41.625 18.2344 40.125 18.2344C38.5234 18.2344 37.2852 17.668 36.4102 16.5352L36.3047 18H34.3125V3.05176e-05H36.4805V6.71487C37.3555 5.62894 38.5625 5.08597 40.1016 5.08597C41.6406 5.08597 42.8477 5.668 43.7227 6.83206C44.6055 7.99612 45.0469 9.58987 45.0469 11.6133V11.8008ZM42.8789 11.5547C42.8789 10.0782 42.5938 8.93753 42.0234 8.13284C41.4531 7.32816 40.6328 6.92581 39.5625 6.92581C38.1328 6.92581 37.1055 7.58987 36.4805 8.918V14.4024C37.1445 15.7305 38.1797 16.3946 39.5859 16.3946C40.625 16.3946 41.4336 15.9922 42.0117 15.1875C42.5898 14.3828 42.8789 13.1719 42.8789 11.5547Z" fill="black"/>
<path d="M55.1719 14.6367C55.1719 14.0508 54.9492 13.5977 54.5039 13.2774C54.0664 12.9492 53.2969 12.668 52.1953 12.4336C51.1016 12.1992 50.2305 11.918 49.582 11.5899C48.9414 11.2617 48.4648 10.8711 48.1523 10.418C47.8477 9.96487 47.6953 9.42581 47.6953 8.80081C47.6953 7.76175 48.1328 6.88284 49.0078 6.16409C49.8906 5.44534 51.0156 5.08597 52.3828 5.08597C53.8203 5.08597 54.9844 5.45706 55.875 6.19925C56.7734 6.94144 57.2227 7.89066 57.2227 9.04691H55.043C55.043 8.45316 54.7891 7.94144 54.2812 7.51175C53.7812 7.08206 53.1484 6.86722 52.3828 6.86722C51.5938 6.86722 50.9766 7.03909 50.5312 7.38284C50.0859 7.72659 49.8633 8.17581 49.8633 8.7305C49.8633 9.25394 50.0703 9.64847 50.4844 9.91409C50.8984 10.1797 51.6445 10.4336 52.7227 10.6758C53.8086 10.918 54.6875 11.2071 55.3594 11.543C56.0312 11.8789 56.5273 12.2852 56.8477 12.7617C57.1758 13.2305 57.3398 13.8047 57.3398 14.4844C57.3398 15.6172 56.8867 16.5274 55.9805 17.2149C55.0742 17.8946 53.8984 18.2344 52.4531 18.2344C51.4375 18.2344 50.5391 18.0547 49.7578 17.6953C48.9766 17.336 48.3633 16.836 47.918 16.1953C47.4805 15.5469 47.2617 14.8477 47.2617 14.0977H49.4297C49.4688 14.8242 49.7578 15.4024 50.2969 15.8321C50.8438 16.2539 51.5625 16.4649 52.4531 16.4649C53.2734 16.4649 53.9297 16.3008 54.4219 15.9727C54.9219 15.6367 55.1719 15.1914 55.1719 14.6367Z" fill="black"/>
</svg>
