<svg width="40" height="40" viewBox="0 0 40 40" fill="none" xmlns="http://www.w3.org/2000/svg">
<path d="M11.7313 18.218L11.7241 18.2113L11.7168 18.2048C10.4011 17.0276 8.31941 16.9996 7.02323 18.2137C5.6268 19.4731 5.66141 21.5462 7.01226 22.826L7.01223 22.826L7.01788 22.8312L13.7179 29.0812L13.7255 29.0883L13.7332 29.0952C15.0515 30.2748 17.1389 30.3005 18.4345 29.079C18.4352 29.0784 18.4359 29.0777 18.4366 29.077L32.9756 15.4873C34.3611 14.2389 34.3581 12.1496 32.9668 10.9048C31.6485 9.72523 29.5611 9.69953 28.2655 10.921C28.2648 10.9217 28.2641 10.9223 28.2634 10.923L16.0988 22.2828L11.7313 18.218ZM36 39H4C2.35228 39 1 37.6477 1 36V4C1 2.35228 2.35228 1 4 1H36C37.6477 1 39 2.35228 39 4V36C39 37.6477 37.6477 39 36 39Z" stroke="#48ACDE" stroke-width="2"/>
</svg>
