<svg width="40" height="40" viewBox="0 0 40 40" fill="none" xmlns="http://www.w3.org/2000/svg">
<g clip-path="url(#clip0)">
<path d="M15.657 16.0165C13.874 16.8858 12.4054 18.2547 11.4107 19.9745C11.249 20.2536 11.3447 20.6102 11.6232 20.7715C11.7155 20.825 11.8158 20.8501 11.9149 20.8501C12.1165 20.8501 12.3125 20.7459 12.4202 20.559C13.2986 19.0409 14.5951 17.8326 16.1686 17.0647C16.458 16.9234 16.5782 16.5742 16.4369 16.2848C16.2967 15.9954 15.9487 15.8741 15.657 16.0165Z" fill="#48ACDE"/>
<path d="M33.4166 24.35H32.2205C31.9384 18.405 27.4099 13.5641 21.6015 12.8004C21.6958 12.5855 21.75 12.3492 21.75 12.1C21.75 11.135 20.965 10.35 20 10.35C19.035 10.35 18.25 11.135 18.25 12.1C18.25 12.3493 18.3042 12.5855 18.3985 12.8004C12.5901 13.5641 8.06161 18.405 7.77953 24.35H6.58335C6.26091 24.35 6 24.6109 6 24.9333V25.5178C6 26.3957 6.25747 27.2462 6.74512 27.9776C7.17862 28.6282 7.90438 29.0167 8.68652 29.0167H31.3135C32.0951 29.0167 32.8214 28.6282 33.2554 27.9771C33.7425 27.2456 34 26.3957 34 25.5178V24.9333C34 24.6109 33.7391 24.35 33.4166 24.35ZM20 11.5167C20.3218 11.5167 20.5834 11.7781 20.5834 12.1C20.5834 12.4219 20.3219 12.6834 20 12.6834C19.6781 12.6834 19.4166 12.4219 19.4166 12.1C19.4166 11.7781 19.6782 11.5167 20 11.5167ZM20 13.85C25.9145 13.85 30.7475 18.5104 31.0538 24.35H8.94623C9.25248 18.5104 14.0855 13.85 20 13.85ZM32.8334 25.5178C32.8334 26.1644 32.6436 26.7916 32.2842 27.3305C32.0671 27.6558 31.7043 27.85 31.3135 27.85H8.68652C8.29573 27.85 7.93227 27.6558 7.71527 27.33C7.35636 26.7911 7.1667 26.1644 7.1667 25.5179V25.5167H32.8334V25.5178Z" fill="#48ACDE"/>
</g>
<path d="M40 2C40 0.895431 39.1046 0 38 0H2C0.895431 0 0 0.895431 0 2V38C0 39.1046 0.895431 40 2 40H38C39.1046 40 40 39.1046 40 38V2ZM38.3333 36.3333C38.3333 37.4379 37.4379 38.3333 36.3333 38.3333H3.66667C2.5621 38.3333 1.66667 37.4379 1.66667 36.3333V3.66667C1.66667 2.5621 2.5621 1.66667 3.66667 1.66667H36.3333C37.4379 1.66667 38.3333 2.5621 38.3333 3.66667V36.3333Z" fill="#48ACDE"/>
<defs>
<clipPath id="clip0">
<rect x="6" y="10" width="28" height="18.9" fill="white"/>
</clipPath>
</defs>
</svg>
