<svg width="28" height="20" viewBox="0 0 28 20" fill="none" xmlns="http://www.w3.org/2000/svg">
<path d="M2.00391 19V7.99612H0V6.32034H2.00391V5.01956C2.00391 3.66019 2.36719 2.60941 3.09375 1.86722C3.82031 1.12503 4.84766 0.753937 6.17578 0.753937C6.67578 0.753937 7.17188 0.820343 7.66406 0.953156L7.54688 2.71097C7.17969 2.64066 6.78906 2.6055 6.375 2.6055C5.67188 2.6055 5.12891 2.81253 4.74609 3.22659C4.36328 3.63284 4.17188 4.21878 4.17188 4.98441V6.32034H6.87891V7.99612H4.17188V19H2.00391Z" fill="black"/>
<path d="M17.1094 19C16.9844 18.75 16.8828 18.3047 16.8047 17.6641C15.7969 18.711 14.5938 19.2344 13.1953 19.2344C11.9453 19.2344 10.918 18.8828 10.1133 18.1797C9.31641 17.4688 8.91797 16.5703 8.91797 15.4844C8.91797 14.1641 9.41797 13.1407 10.418 12.4141C11.4258 11.6797 12.8398 11.3125 14.6602 11.3125H16.7695V10.3164C16.7695 9.55862 16.543 8.95706 16.0898 8.51175C15.6367 8.05862 14.9688 7.83206 14.0859 7.83206C13.3125 7.83206 12.6641 8.02737 12.1406 8.418C11.6172 8.80862 11.3555 9.28128 11.3555 9.83597H9.17578C9.17578 9.20316 9.39844 8.59378 9.84375 8.00784C10.2969 7.41409 10.9062 6.94534 11.6719 6.60159C12.4453 6.25784 13.293 6.08597 14.2148 6.08597C15.6758 6.08597 16.8203 6.45316 17.6484 7.18753C18.4766 7.91409 18.9062 8.918 18.9375 10.1992V16.0352C18.9375 17.1992 19.0859 18.125 19.3828 18.8125V19H17.1094ZM13.5117 17.3477C14.1914 17.3477 14.8359 17.1719 15.4453 16.8203C16.0547 16.4688 16.4961 16.0117 16.7695 15.4492V12.8477H15.0703C12.4141 12.8477 11.0859 13.625 11.0859 15.1797C11.0859 15.8594 11.3125 16.3907 11.7656 16.7735C12.2188 17.1563 12.8008 17.3477 13.5117 17.3477Z" fill="black"/>
<path d="M25.2773 3.25003V6.32034H27.6445V7.99612H25.2773V15.8594C25.2773 16.3672 25.3828 16.75 25.5938 17.0078C25.8047 17.2578 26.1641 17.3828 26.6719 17.3828C26.9219 17.3828 27.2656 17.336 27.7031 17.2422V19C27.1328 19.1563 26.5781 19.2344 26.0391 19.2344C25.0703 19.2344 24.3398 18.9414 23.8477 18.3555C23.3555 17.7696 23.1094 16.9375 23.1094 15.8594V7.99612H20.8008V6.32034H23.1094V3.25003H25.2773Z" fill="black"/>
</svg>
