<svg width="40" height="40" viewBox="0 0 40 40" fill="none" xmlns="http://www.w3.org/2000/svg">
<g clip-path="url(#clip0)">
<path d="M20.2291 23.665L18.8726 25.0215L5.09745 11.2464C3.90412 10.0531 3.17457 8.41715 3.01843 6.48339L2.27087 6.54375L3.01843 6.48339C2.88085 4.77944 3.18624 2.88809 3.92228 1.0177C3.92228 1.0177 3.92229 1.01769 3.92229 1.01769L4.02763 0.75H4.63825L22.7436 18.8553L38.4283 34.5402L38.9587 34.0098L38.4284 34.5402C39.5068 35.6186 39.5069 37.375 38.4283 38.4535C37.3431 39.5387 35.5648 39.4876 34.5291 38.4673L21.3185 23.6954L20.7899 23.1042L20.2291 23.665Z" stroke="#48ACDE" stroke-width="1.5"/>
<path d="M1.57049 34.5032L12.2441 23.8296L16.1574 27.7427L5.48365 38.4164C4.37467 39.5254 2.59629 39.4422 1.57049 38.4164L1.05098 38.9359L1.57049 38.4164C0.49213 37.3381 0.492129 35.5816 1.57049 34.5032Z" stroke="#48ACDE" stroke-width="1.5"/>
<path d="M38.3007 6.66007L31.9452 13.0155L30.2871 11.3576L36.6427 5.00203L34.9847 3.34406L28.6292 9.69953L26.9712 8.04156L33.3268 1.68609L31.6689 0.0281982L23.3791 8.31804C22.3649 9.33218 21.7594 10.6787 21.6738 12.1098C21.6521 12.4724 21.5699 12.8291 21.4336 13.1683L26.8187 18.5534C27.1579 18.4169 27.5146 18.3348 27.8771 18.3131C29.3082 18.2277 30.6548 17.622 31.6689 16.6079L39.9588 8.31812L38.3007 6.66007Z" stroke="#48ACDE" stroke-width="1.5"/>
</g>
<defs>
<clipPath id="clip0">
<rect width="40" height="40" fill="white"/>
</clipPath>
</defs>
</svg>
