<svg width="40" height="40" viewBox="0 0 40 40" fill="none" xmlns="http://www.w3.org/2000/svg">
<path d="M40 2C40 0.895431 39.1046 0 38 0H2C0.895431 0 0 0.895431 0 2V38C0 39.1046 0.895431 40 2 40H38C39.1046 40 40 39.1046 40 38V2ZM38.3333 36.3333C38.3333 37.4379 37.4379 38.3333 36.3333 38.3333H3.66667C2.5621 38.3333 1.66667 37.4379 1.66667 36.3333V3.66667C1.66667 2.5621 2.5621 1.66667 3.66667 1.66667H36.3333C37.4379 1.66667 38.3333 2.5621 38.3333 3.66667V36.3333Z" fill="#48ACDE"/>
<path d="M17.2558 6.42247L16.0775 5.24414L9.16664 12.155L6.42247 9.41081L5.24414 10.5891L9.16664 14.5116L17.2558 6.42247Z" fill="#48ACDE"/>
<path d="M35 9.16669H20V10.8334H35V9.16669Z" fill="#48ACDE"/>
<path d="M17.2558 16.4225L16.0775 15.2441L9.16664 22.155L6.42247 19.4108L5.24414 20.5891L9.16664 24.5116L17.2558 16.4225Z" fill="#48ACDE"/>
<path d="M35 19.1667H20V20.8334H35V19.1667Z" fill="#48ACDE"/>
<path d="M17.2558 26.4225L16.0775 25.2441L9.16664 32.155L6.42247 29.4108L5.24414 30.5891L9.16664 34.5116L17.2558 26.4225Z" fill="#48ACDE"/>
<path d="M35 29.1667H20V30.8334H35V29.1667Z" fill="#48ACDE"/>
</svg>
