<svg width="72" height="23" viewBox="0 0 72 23" fill="none" xmlns="http://www.w3.org/2000/svg">
<path d="M10.7109 11.8008C10.7109 13.7305 10.2695 15.2852 9.38672 16.4648C8.50391 17.6445 7.30859 18.2344 5.80078 18.2344C4.26172 18.2344 3.05078 17.7461 2.16797 16.7695V22.875H0V5.32031H1.98047L2.08594 6.72656C2.96875 5.63281 4.19531 5.08594 5.76562 5.08594C7.28906 5.08594 8.49219 5.66016 9.375 6.80859C10.2656 7.95703 10.7109 9.55469 10.7109 11.6016V11.8008ZM8.54297 11.5547C8.54297 10.125 8.23828 8.99609 7.62891 8.16797C7.01953 7.33984 6.18359 6.92578 5.12109 6.92578C3.80859 6.92578 2.82422 7.50781 2.16797 8.67188V14.7305C2.81641 15.8867 3.80859 16.4648 5.14453 16.4648C6.18359 16.4648 7.00781 16.0547 7.61719 15.2344C8.23438 14.4062 8.54297 13.1797 8.54297 11.5547Z" fill="black"/>
<path d="M19.6055 7.26562C19.2773 7.21094 18.9219 7.18359 18.5391 7.18359C17.1172 7.18359 16.1523 7.78906 15.6445 9V18H13.4766V5.32031H15.5859L15.6211 6.78516C16.332 5.65234 17.3398 5.08594 18.6445 5.08594C19.0664 5.08594 19.3867 5.14062 19.6055 5.25V7.26562Z" fill="black"/>
<path d="M20.8008 11.543C20.8008 10.3008 21.043 9.18359 21.5273 8.19141C22.0195 7.19922 22.6992 6.43359 23.5664 5.89453C24.4414 5.35547 25.4375 5.08594 26.5547 5.08594C28.2812 5.08594 29.6758 5.68359 30.7383 6.87891C31.8086 8.07422 32.3438 9.66406 32.3438 11.6484V11.8008C32.3438 13.0352 32.1055 14.1445 31.6289 15.1289C31.1602 16.1055 30.4844 16.8672 29.6016 17.4141C28.7266 17.9609 27.7188 18.2344 26.5781 18.2344C24.8594 18.2344 23.4648 17.6367 22.3945 16.4414C21.332 15.2461 20.8008 13.6641 20.8008 11.6953V11.543ZM22.9805 11.8008C22.9805 13.207 23.3047 14.3359 23.9531 15.1875C24.6094 16.0391 25.4844 16.4648 26.5781 16.4648C27.6797 16.4648 28.5547 16.0352 29.2031 15.1758C29.8516 14.3086 30.1758 13.0977 30.1758 11.543C30.1758 10.1523 29.8438 9.02734 29.1797 8.16797C28.5234 7.30078 27.6484 6.86719 26.5547 6.86719C25.4844 6.86719 24.6211 7.29297 23.9648 8.14453C23.3086 8.99609 22.9805 10.2148 22.9805 11.8008Z" fill="black"/>
<path d="M38.0039 2.25V5.32031H40.3711V6.99609H38.0039V14.8594C38.0039 15.3672 38.1094 15.75 38.3203 16.0078C38.5312 16.2578 38.8906 16.3828 39.3984 16.3828C39.6484 16.3828 39.9922 16.3359 40.4297 16.2422V18C39.8594 18.1562 39.3047 18.2344 38.7656 18.2344C37.7969 18.2344 37.0664 17.9414 36.5742 17.3555C36.082 16.7695 35.8359 15.9375 35.8359 14.8594V6.99609H33.5273V5.32031H35.8359V2.25H38.0039Z" fill="black"/>
<path d="M48.1758 18.2344C46.457 18.2344 45.0586 17.6719 43.9805 16.5469C42.9023 15.4141 42.3633 13.9023 42.3633 12.0117V11.6133C42.3633 10.3555 42.6016 9.23438 43.0781 8.25C43.5625 7.25781 44.2344 6.48438 45.0938 5.92969C45.9609 5.36719 46.8984 5.08594 47.9062 5.08594C49.5547 5.08594 50.8359 5.62891 51.75 6.71484C52.6641 7.80078 53.1211 9.35547 53.1211 11.3789V12.2812H44.5312C44.5625 13.5312 44.9258 14.543 45.6211 15.3164C46.3242 16.082 47.2148 16.4648 48.293 16.4648C49.0586 16.4648 49.707 16.3086 50.2383 15.9961C50.7695 15.6836 51.2344 15.2695 51.6328 14.7539L52.957 15.7852C51.8945 17.418 50.3008 18.2344 48.1758 18.2344ZM47.9062 6.86719C47.0312 6.86719 46.2969 7.1875 45.7031 7.82812C45.1094 8.46094 44.7422 9.35156 44.6016 10.5H50.9531V10.3359C50.8906 9.23438 50.5938 8.38281 50.0625 7.78125C49.5312 7.17188 48.8125 6.86719 47.9062 6.86719Z" fill="black"/>
<path d="M57.9961 18H55.8281V5.32031H57.9961V18ZM55.6523 1.95703C55.6523 1.60547 55.7578 1.30859 55.9688 1.06641C56.1875 0.824219 56.5078 0.703125 56.9297 0.703125C57.3516 0.703125 57.6719 0.824219 57.8906 1.06641C58.1094 1.30859 58.2188 1.60547 58.2188 1.95703C58.2188 2.30859 58.1094 2.60156 57.8906 2.83594C57.6719 3.07031 57.3516 3.1875 56.9297 3.1875C56.5078 3.1875 56.1875 3.07031 55.9688 2.83594C55.7578 2.60156 55.6523 2.30859 55.6523 1.95703Z" fill="black"/>
<path d="M63.5273 5.32031L63.5977 6.91406C64.5664 5.69531 65.832 5.08594 67.3945 5.08594C70.0742 5.08594 71.4258 6.59766 71.4492 9.62109V18H69.2812V9.60938C69.2734 8.69531 69.0625 8.01953 68.6484 7.58203C68.2422 7.14453 67.6055 6.92578 66.7383 6.92578C66.0352 6.92578 65.418 7.11328 64.8867 7.48828C64.3555 7.86328 63.9414 8.35547 63.6445 8.96484V18H61.4766V5.32031H63.5273Z" fill="black"/>
</svg>
