<svg width="40" height="41" viewBox="0 0 40 41" fill="none" xmlns="http://www.w3.org/2000/svg">
<path d="M6.08385 29.3313C5.60393 29.3313 5.21484 28.9423 5.21484 28.4623V11.0829C5.21484 10.603 5.60393 10.2139 6.08385 10.2139C6.56376 10.2139 6.95285 10.603 6.95285 11.0829V28.4623C6.95277 28.9423 6.56376 29.3313 6.08385 29.3313Z" fill="#455A64"/>
<path d="M9.56041 25.8554C9.08049 25.8554 8.69141 25.4663 8.69141 24.9864V11.0829C8.69141 10.603 9.08049 10.2139 9.56041 10.2139C10.0403 10.2139 10.4294 10.603 10.4294 11.0829V24.9865C10.4294 25.4663 10.0403 25.8554 9.56041 25.8554Z" fill="#455A64"/>
<path d="M13.035 25.8554C12.5551 25.8554 12.166 25.4663 12.166 24.9864V11.0829C12.166 10.603 12.5551 10.2139 13.035 10.2139C13.5149 10.2139 13.904 10.603 13.904 11.0829V24.9865C13.904 25.4663 13.5149 25.8554 13.035 25.8554Z" fill="#455A64"/>
<path d="M16.5116 25.8554C16.0317 25.8554 15.6426 25.4663 15.6426 24.9864V11.0829C15.6426 10.603 16.0317 10.2139 16.5116 10.2139C16.9915 10.2139 17.3806 10.603 17.3806 11.0829V24.9865C17.3805 25.4663 16.9915 25.8554 16.5116 25.8554Z" fill="#455A64"/>
<path d="M19.9881 29.3313C19.5082 29.3313 19.1191 28.9423 19.1191 28.4623V11.0829C19.1191 10.603 19.5082 10.2139 19.9881 10.2139C20.4681 10.2139 20.8572 10.603 20.8572 11.0829V28.4623C20.8572 28.9423 20.4681 29.3313 19.9881 29.3313Z" fill="#455A64"/>
<path d="M23.4628 25.8554C22.9828 25.8554 22.5938 25.4663 22.5938 24.9864V11.0829C22.5938 10.603 22.9828 10.2139 23.4628 10.2139C23.9427 10.2139 24.3318 10.603 24.3318 11.0829V24.9865C24.3318 25.4663 23.9427 25.8554 23.4628 25.8554Z" fill="#455A64"/>
<path d="M26.9393 25.8554C26.4594 25.8554 26.0703 25.4663 26.0703 24.9864V11.0829C26.0703 10.603 26.4594 10.2139 26.9393 10.2139C27.4192 10.2139 27.8083 10.603 27.8083 11.0829V24.9865C27.8082 25.4663 27.4192 25.8554 26.9393 25.8554Z" fill="#455A64"/>
<path d="M30.4159 25.8554C29.936 25.8554 29.5469 25.4663 29.5469 24.9864V11.0829C29.5469 10.603 29.936 10.2139 30.4159 10.2139C30.8958 10.2139 31.2849 10.603 31.2849 11.0829V24.9865C31.2849 25.4663 30.8958 25.8554 30.4159 25.8554Z" fill="#455A64"/>
<path d="M33.8905 29.3313C33.4106 29.3313 33.0215 28.9423 33.0215 28.4623V11.0829C33.0215 10.603 33.4106 10.2139 33.8905 10.2139C34.3704 10.2139 34.7595 10.603 34.7595 11.0829V28.4623C34.7595 28.9423 34.3704 29.3313 33.8905 29.3313Z" fill="#455A64"/>
<path d="M9.56062 29.3313C9.44656 29.3352 9.33324 29.3114 9.23043 29.2618C9.12176 29.2252 9.02546 29.159 8.95239 29.0706C8.61642 28.7511 8.60306 28.2198 8.92257 27.8839C8.93226 27.8737 8.9422 27.8638 8.95239 27.8541C9.02538 27.7656 9.12176 27.6994 9.23043 27.6629C9.55304 27.53 9.92404 27.6055 10.1689 27.8541C10.5049 28.1967 10.4995 28.747 10.1568 29.0829C9.99736 29.2392 9.78392 29.3281 9.56062 29.3313Z" fill="#455A64"/>
<path d="M13.0352 29.3314C12.9212 29.3353 12.8079 29.3114 12.705 29.2619C12.5964 29.2253 12.5001 29.1591 12.427 29.0707C12.091 28.7512 12.0777 28.2198 12.3972 27.884C12.4069 27.8738 12.4168 27.8638 12.427 27.8541C12.5 27.7657 12.5964 27.6994 12.705 27.6629C13.0275 27.528 13.3995 27.6039 13.6435 27.8541C13.7319 27.9272 13.7982 28.0235 13.8347 28.1322C13.9274 28.3425 13.9274 28.5822 13.8347 28.7926C13.7985 28.9015 13.7323 28.9979 13.6435 29.0707C13.4869 29.2398 13.2658 29.3346 13.0352 29.3314Z" fill="#455A64"/>
<path d="M16.5118 29.3314C16.3977 29.3353 16.2844 29.3114 16.1816 29.2619C16.0729 29.2253 15.9766 29.1591 15.9036 29.0707C15.5676 28.7512 15.5542 28.2198 15.8737 27.884C15.8834 27.8738 15.8934 27.8638 15.9036 27.8541C15.9766 27.7657 16.0729 27.6994 16.1816 27.6629C16.504 27.528 16.8761 27.6039 17.1201 27.8541C17.2085 27.9272 17.2747 28.0235 17.3113 28.1322C17.404 28.3425 17.404 28.5822 17.3113 28.7926C17.275 28.9015 17.2088 28.9979 17.1201 29.0707C16.9634 29.2398 16.7423 29.3346 16.5118 29.3314Z" fill="#455A64"/>
<path d="M23.4642 29.3313C22.9844 29.3245 22.6007 28.9301 22.6075 28.4503C22.6107 28.227 22.6996 28.0135 22.8559 27.8541C23.1938 27.5229 23.7346 27.5229 24.0724 27.8541C24.1608 27.9272 24.2271 28.0235 24.2636 28.1321C24.3563 28.3425 24.3563 28.5821 24.2636 28.7926C24.2274 28.9014 24.1612 28.9979 24.0724 29.0706C23.9159 29.2397 23.6948 29.3346 23.4642 29.3313Z" fill="#455A64"/>
<path d="M26.9388 29.3313C26.459 29.3246 26.0754 28.9301 26.0821 28.4503C26.0852 28.227 26.1742 28.0135 26.3305 27.8541C26.6684 27.5228 27.2092 27.5228 27.547 27.8541C27.883 28.1967 27.8776 28.747 27.5349 29.0829C27.3756 29.2392 27.162 29.3281 26.9388 29.3313Z" fill="#455A64"/>
<path d="M30.4159 29.3313C30.1854 29.3346 29.9643 29.2398 29.8076 29.0706C29.7189 28.9979 29.6526 28.9015 29.6164 28.7926C29.5237 28.5822 29.5237 28.3426 29.6164 28.1321C29.6529 28.0234 29.7191 27.9271 29.8076 27.8541C30.1455 27.5228 30.6863 27.5228 31.0241 27.8541C31.3601 28.1967 31.3547 28.747 31.012 29.0829C30.8527 29.2392 30.6392 29.3281 30.4159 29.3313Z" fill="#455A64"/>
<path d="M0.869002 6.95177C0.389083 6.95177 0 6.56277 0 6.08285V0.869002C0 0.389083 0.389083 0 0.869002 0H6.08285C6.56277 0 6.95185 0.389083 6.95185 0.869002C6.95185 1.34892 6.56277 1.738 6.08285 1.738H1.73792V6.08285C1.73792 6.56277 1.34892 6.95177 0.869002 6.95177Z" fill="#2196F3"/>
<path d="M6.08285 39.8408H0.869002C0.389083 39.8408 0 39.4517 0 38.9718V33.7579C0 33.278 0.389083 32.8889 0.869002 32.8889C1.34892 32.8889 1.73792 33.278 1.73792 33.7579V38.1028H6.08277C6.56269 38.1028 6.95177 38.4919 6.95177 38.9718C6.95177 39.4517 6.56277 39.8408 6.08285 39.8408Z" fill="#2196F3"/>
<path d="M39.1043 6.95177C38.6244 6.95177 38.2353 6.56269 38.2353 6.08277V1.73792H33.8905C33.4106 1.73792 33.0215 1.34884 33.0215 0.868921C33.0215 0.389002 33.4106 0 33.8905 0H39.1043C39.5842 0 39.9733 0.389083 39.9733 0.869002V6.08285C39.9733 6.56277 39.5842 6.95177 39.1043 6.95177Z" fill="#2196F3"/>
<path d="M39.1043 39.8408H33.8905C33.4106 39.8408 33.0215 39.4517 33.0215 38.9718C33.0215 38.4919 33.4106 38.1028 33.8905 38.1028H38.2353V33.7579C38.2353 33.278 38.6244 32.8889 39.1043 32.8889C39.5842 32.8889 39.9733 33.278 39.9733 33.7579V38.9718C39.9733 39.4517 39.5842 39.8408 39.1043 39.8408Z" fill="#2196F3"/>
<path d="M6.08385 29.3313C5.60393 29.3313 5.21484 28.9423 5.21484 28.4623V11.0829C5.21484 10.603 5.60393 10.2139 6.08385 10.2139C6.56376 10.2139 6.95285 10.603 6.95285 11.0829V28.4623C6.95277 28.9423 6.56376 29.3313 6.08385 29.3313Z" fill="#48ACDE"/>
<path d="M9.55845 25.8554C9.07854 25.8554 8.68945 25.4663 8.68945 24.9864V11.0829C8.68945 10.603 9.07854 10.2139 9.55845 10.2139C10.0384 10.2139 10.4275 10.603 10.4275 11.0829V24.9865C10.4275 25.4663 10.0384 25.8554 9.55845 25.8554Z" fill="#48ACDE"/>
<path d="M13.035 25.8554C12.5551 25.8554 12.166 25.4663 12.166 24.9864V11.0829C12.166 10.603 12.5551 10.2139 13.035 10.2139C13.5149 10.2139 13.904 10.603 13.904 11.0829V24.9865C13.904 25.4663 13.5149 25.8554 13.035 25.8554Z" fill="#48ACDE"/>
<path d="M16.5096 25.8554C16.0297 25.8554 15.6406 25.4663 15.6406 24.9864V11.0829C15.6406 10.603 16.0297 10.2139 16.5096 10.2139C16.9895 10.2139 17.3786 10.603 17.3786 11.0829V24.9865C17.3785 25.4663 16.9895 25.8554 16.5096 25.8554Z" fill="#48ACDE"/>
<path d="M19.9862 29.3313C19.5063 29.3313 19.1172 28.9423 19.1172 28.4623V11.0829C19.1172 10.603 19.5063 10.2139 19.9862 10.2139C20.4661 10.2139 20.8552 10.603 20.8552 11.0829V28.4623C20.8552 28.9423 20.4661 29.3313 19.9862 29.3313Z" fill="#48ACDE"/>
<path d="M23.4628 25.8554C22.9828 25.8554 22.5938 25.4663 22.5938 24.9864V11.0829C22.5938 10.603 22.9828 10.2139 23.4628 10.2139C23.9427 10.2139 24.3318 10.603 24.3318 11.0829V24.9865C24.3318 25.4663 23.9427 25.8554 23.4628 25.8554Z" fill="#48ACDE"/>
<path d="M26.9374 25.8554C26.4574 25.8554 26.0684 25.4663 26.0684 24.9864V11.0829C26.0684 10.603 26.4574 10.2139 26.9374 10.2139C27.4173 10.2139 27.8064 10.603 27.8064 11.0829V24.9865C27.8063 25.4663 27.4173 25.8554 26.9374 25.8554Z" fill="#48ACDE"/>
<path d="M30.4139 25.8554C29.934 25.8554 29.5449 25.4663 29.5449 24.9864V11.0829C29.5449 10.603 29.934 10.2139 30.4139 10.2139C30.8938 10.2139 31.2829 10.603 31.2829 11.0829V24.9865C31.2829 25.4663 30.8938 25.8554 30.4139 25.8554Z" fill="#48ACDE"/>
<path d="M33.8905 29.3313C33.4106 29.3313 33.0215 28.9423 33.0215 28.4623V11.0829C33.0215 10.603 33.4106 10.2139 33.8905 10.2139C34.3704 10.2139 34.7595 10.603 34.7595 11.0829V28.4623C34.7595 28.9423 34.3704 29.3313 33.8905 29.3313Z" fill="#48ACDE"/>
<path d="M9.55787 29.3313C9.44382 29.3349 9.33058 29.3111 9.22769 29.2619C9.1191 29.225 9.02288 29.1589 8.94965 29.0707C8.61368 28.7498 8.60146 28.2173 8.92235 27.8814C8.93123 27.8721 8.94036 27.863 8.94965 27.8541C9.0228 27.7659 9.1191 27.6997 9.22769 27.6629C9.43926 27.576 9.67657 27.576 9.88814 27.6629C9.99698 27.6992 10.0934 27.7655 10.1662 27.8541C10.5022 28.1968 10.4968 28.747 10.154 29.083C9.99462 29.2392 9.78117 29.3282 9.55787 29.3313Z" fill="#48ACDE"/>
<path d="M13.0343 29.3314C12.5543 29.3256 12.1701 28.9318 12.1758 28.4519C12.1785 28.228 12.2675 28.0139 12.4242 27.854C12.6677 27.6029 13.0404 27.5269 13.3627 27.6628C13.4716 27.6992 13.5679 27.7654 13.6408 27.854C13.9767 28.1967 13.9714 28.7469 13.6287 29.0829C13.4697 29.2388 13.2569 29.3278 13.0343 29.3314Z" fill="#48ACDE"/>
<path d="M16.5108 29.3313C16.0309 29.3255 15.6466 28.9318 15.6524 28.4519C15.6551 28.228 15.7441 28.0139 15.9008 27.854C15.974 27.7658 16.0702 27.6996 16.1788 27.6628C16.5015 27.5299 16.8724 27.6055 17.1173 27.854C17.4533 28.1967 17.4479 28.7469 17.1052 29.0829C16.9458 29.2392 16.7323 29.3282 16.509 29.3313H16.5108V29.3313Z" fill="#48ACDE"/>
<path d="M23.3684 29.2336C23.2545 29.2354 23.1417 29.2117 23.0382 29.1641C22.9296 29.1273 22.8334 29.0612 22.7602 28.9729C22.4242 28.652 22.412 28.1196 22.7329 27.7837C22.7418 27.7744 22.7509 27.7653 22.7602 27.7564C22.8333 27.6682 22.9296 27.6019 23.0382 27.5652C23.2498 27.4783 23.4871 27.4783 23.6987 27.5652C23.8075 27.6015 23.9039 27.6678 23.9767 27.7564C24.3127 28.099 24.3073 28.6493 23.9646 28.9852C23.8052 29.1415 23.5916 29.2304 23.3684 29.2336Z" fill="#48ACDE"/>
<path d="M26.9387 29.3313C26.8248 29.3331 26.712 29.3094 26.6086 29.2618C26.5 29.225 26.4037 29.1588 26.3305 29.0706C25.9945 28.7497 25.9823 28.2173 26.3032 27.8814C26.3121 27.8721 26.3212 27.863 26.3305 27.8541C26.6684 27.5228 27.2092 27.5228 27.547 27.8541C27.883 28.1722 27.8974 28.7024 27.5794 29.0383C27.5689 29.0494 27.5581 29.0601 27.547 29.0706C27.4741 29.1592 27.3778 29.2254 27.269 29.2618C27.1655 29.3096 27.0526 29.3333 26.9387 29.3313Z" fill="#48ACDE"/>
<path d="M30.4143 29.3313C30.3005 29.3331 30.1876 29.3094 30.0842 29.2618C29.9756 29.225 29.8794 29.1588 29.8061 29.0706C29.6372 28.9139 29.5424 28.6929 29.5454 28.4623C29.5411 28.3482 29.565 28.2348 29.6149 28.1321C29.6508 28.0235 29.7164 27.9272 29.8043 27.8541C29.8775 27.7659 29.9738 27.6996 30.0824 27.6629C30.405 27.53 30.776 27.6055 31.0209 27.8541C31.1087 27.9276 31.1748 28.0238 31.2121 28.1321C31.262 28.2349 31.2859 28.3483 31.2816 28.4623C31.2688 28.9368 30.8871 29.3185 30.4125 29.3313H30.4143Z" fill="#48ACDE"/>
<path d="M0.869002 6.95177C0.389083 6.95177 0 6.56277 0 6.08285V0.869002C0 0.389083 0.389083 0 0.869002 0H6.08285C6.56277 0 6.95185 0.389083 6.95185 0.869002C6.95185 1.34892 6.56277 1.738 6.08285 1.738H1.73792V6.08285C1.73792 6.56277 1.34892 6.95177 0.869002 6.95177Z" fill="#48ACDE"/>
<path d="M6.08285 39.8408H0.869002C0.389083 39.8408 0 39.4517 0 38.9718V33.7579C0 33.278 0.389083 32.8889 0.869002 32.8889C1.34892 32.8889 1.73792 33.278 1.73792 33.7579V38.1028H6.08277C6.56269 38.1028 6.95177 38.4918 6.95177 38.9718C6.95177 39.4517 6.56277 39.8408 6.08285 39.8408Z" fill="#48ACDE"/>
<path d="M39.1043 6.95177C38.6244 6.95177 38.2353 6.56269 38.2353 6.08277V1.73792H33.8905C33.4106 1.73792 33.0215 1.34884 33.0215 0.868921C33.0215 0.389002 33.4106 0 33.8905 0H39.1043C39.5843 0 39.9733 0.389083 39.9733 0.869002V6.08285C39.9733 6.56277 39.5843 6.95177 39.1043 6.95177Z" fill="#48ACDE"/>
<path d="M39.1043 39.8408H33.8905C33.4106 39.8408 33.0215 39.4517 33.0215 38.9718C33.0215 38.4918 33.4106 38.1028 33.8905 38.1028H38.2353V33.7579C38.2353 33.278 38.6244 32.8889 39.1043 32.8889C39.5843 32.8889 39.9733 33.278 39.9733 33.7579V38.9718C39.9733 39.4517 39.5843 39.8408 39.1043 39.8408Z" fill="#48ACDE"/>
</svg>
