<svg width="42" height="18" viewBox="0 0 42 18" fill="none" xmlns="http://www.w3.org/2000/svg">
<path d="M8.37891 0.234375V2.07422H7.98047C6.29297 2.10547 4.94922 2.60547 3.94922 3.57422C2.94922 4.54297 2.37109 5.90625 2.21484 7.66406C3.11328 6.63281 4.33984 6.11719 5.89453 6.11719C7.37891 6.11719 8.5625 6.64062 9.44531 7.6875C10.3359 8.73438 10.7812 10.0859 10.7812 11.7422C10.7812 13.5 10.3008 14.9062 9.33984 15.9609C8.38672 17.0156 7.10547 17.543 5.49609 17.543C3.86328 17.543 2.53906 16.918 1.52344 15.668C0.507812 14.4102 0 12.793 0 10.8164V9.98438C0 6.84375 0.667969 4.44531 2.00391 2.78906C3.34766 1.125 5.34375 0.273438 7.99219 0.234375H8.37891ZM5.53125 7.92188C4.78906 7.92188 4.10547 8.14453 3.48047 8.58984C2.85547 9.03516 2.42188 9.59375 2.17969 10.2656V11.0625C2.17969 12.4688 2.49609 13.6016 3.12891 14.4609C3.76172 15.3203 4.55078 15.75 5.49609 15.75C6.47266 15.75 7.23828 15.3906 7.79297 14.6719C8.35547 13.9531 8.63672 13.0117 8.63672 11.8477C8.63672 10.6758 8.35156 9.73047 7.78125 9.01172C7.21875 8.28516 6.46875 7.92188 5.53125 7.92188Z" fill="white"/>
<path d="M24.0469 10.0312C24.0469 12.5703 23.6133 14.457 22.7461 15.6914C21.8789 16.9258 20.5234 17.543 18.6797 17.543C16.8594 17.543 15.5117 16.9414 14.6367 15.7383C13.7617 14.5273 13.3086 12.7227 13.2773 10.3242V7.42969C13.2773 4.92188 13.7109 3.05859 14.5781 1.83984C15.4453 0.621094 16.8047 0.0117188 18.6562 0.0117188C20.4922 0.0117188 21.8438 0.601562 22.7109 1.78125C23.5781 2.95312 24.0234 4.76562 24.0469 7.21875V10.0312ZM21.8789 7.06641C21.8789 5.23047 21.6211 3.89453 21.1055 3.05859C20.5898 2.21484 19.7734 1.79297 18.6562 1.79297C17.5469 1.79297 16.7383 2.21094 16.2305 3.04688C15.7227 3.88281 15.4609 5.16797 15.4453 6.90234V10.3711C15.4453 12.2148 15.7109 13.5781 16.2422 14.4609C16.7812 15.3359 17.5938 15.7734 18.6797 15.7734C19.75 15.7734 20.543 15.3594 21.0586 14.5312C21.582 13.7031 21.8555 12.3984 21.8789 10.6172V7.06641Z" fill="white"/>
<path d="M26.6367 3.52734C26.6367 2.50391 26.9609 1.66016 27.6094 0.996094C28.2656 0.332031 29.1055 0 30.1289 0C31.168 0 32.0078 0.335938 32.6484 1.00781C33.2969 1.67188 33.6211 2.53516 33.6211 3.59766V4.42969C33.6211 5.46094 33.293 6.30469 32.6367 6.96094C31.9883 7.60938 31.1602 7.93359 30.1523 7.93359C29.1367 7.93359 28.2969 7.60938 27.6328 6.96094C26.9688 6.30469 26.6367 5.43359 26.6367 4.34766V3.52734ZM28.2539 4.42969C28.2539 5.03906 28.4258 5.54297 28.7695 5.94141C29.1133 6.33203 29.5742 6.52734 30.1523 6.52734C30.707 6.52734 31.1523 6.33594 31.4883 5.95312C31.832 5.57031 32.0039 5.04688 32.0039 4.38281V3.52734C32.0039 2.91797 31.8359 2.41406 31.5 2.01562C31.1641 1.61719 30.707 1.41797 30.1289 1.41797C29.5508 1.41797 29.0938 1.61719 28.7578 2.01562C28.4219 2.41406 28.2539 2.93359 28.2539 3.57422V4.42969ZM34.9453 13.125C34.9453 12.1016 35.2695 11.2617 35.918 10.6055C36.5742 9.94141 37.4141 9.60938 38.4375 9.60938C39.4609 9.60938 40.3008 9.9375 40.957 10.5938C41.6133 11.25 41.9414 12.1211 41.9414 13.207V14.0391C41.9414 15.0625 41.6133 15.9062 40.957 16.5703C40.3086 17.2266 39.4766 17.5547 38.4609 17.5547C37.4453 17.5547 36.6055 17.2305 35.9414 16.582C35.2773 15.9258 34.9453 15.0547 34.9453 13.9688V13.125ZM36.5625 14.0391C36.5625 14.6562 36.7344 15.1641 37.0781 15.5625C37.4219 15.9531 37.8828 16.1484 38.4609 16.1484C39.0234 16.1484 39.4727 15.957 39.8086 15.5742C40.1445 15.1836 40.3125 14.6562 40.3125 13.9922V13.125C40.3125 12.5078 40.1406 12.0039 39.7969 11.6133C39.4609 11.2227 39.0078 11.0273 38.4375 11.0273C37.8828 11.0273 37.4297 11.2227 37.0781 11.6133C36.7344 11.9961 36.5625 12.5156 36.5625 13.1719V14.0391ZM30.6445 16.0195L29.4141 15.2461L37.7461 1.91016L38.9766 2.68359L30.6445 16.0195Z" fill="white"/>
</svg>
