<svg width="42" height="18" viewBox="0 0 42 18" fill="none" xmlns="http://www.w3.org/2000/svg">
<path d="M6.55078 17.3086H4.37109V2.85938L0 4.46484V2.49609L6.21094 0.164062H6.55078V17.3086Z" fill="white"/>
<path d="M23.6016 10.0312C23.6016 12.5703 23.168 14.457 22.3008 15.6914C21.4336 16.9258 20.0781 17.543 18.2344 17.543C16.4141 17.543 15.0664 16.9414 14.1914 15.7383C13.3164 14.5273 12.8633 12.7227 12.832 10.3242V7.42969C12.832 4.92188 13.2656 3.05859 14.1328 1.83984C15 0.621094 16.3594 0.0117188 18.2109 0.0117188C20.0469 0.0117188 21.3984 0.601562 22.2656 1.78125C23.1328 2.95312 23.5781 4.76562 23.6016 7.21875V10.0312ZM21.4336 7.06641C21.4336 5.23047 21.1758 3.89453 20.6602 3.05859C20.1445 2.21484 19.3281 1.79297 18.2109 1.79297C17.1016 1.79297 16.293 2.21094 15.7852 3.04688C15.2773 3.88281 15.0156 5.16797 15 6.90234V10.3711C15 12.2148 15.2656 13.5781 15.7969 14.4609C16.3359 15.3359 17.1484 15.7734 18.2344 15.7734C19.3047 15.7734 20.0977 15.3594 20.6133 14.5312C21.1367 13.7031 21.4102 12.3984 21.4336 10.6172V7.06641Z" fill="white"/>
<path d="M26.1914 3.52734C26.1914 2.50391 26.5156 1.66016 27.1641 0.996094C27.8203 0.332031 28.6602 0 29.6836 0C30.7227 0 31.5625 0.335938 32.2031 1.00781C32.8516 1.67188 33.1758 2.53516 33.1758 3.59766V4.42969C33.1758 5.46094 32.8477 6.30469 32.1914 6.96094C31.543 7.60938 30.7148 7.93359 29.707 7.93359C28.6914 7.93359 27.8516 7.60938 27.1875 6.96094C26.5234 6.30469 26.1914 5.43359 26.1914 4.34766V3.52734ZM27.8086 4.42969C27.8086 5.03906 27.9805 5.54297 28.3242 5.94141C28.668 6.33203 29.1289 6.52734 29.707 6.52734C30.2617 6.52734 30.707 6.33594 31.043 5.95312C31.3867 5.57031 31.5586 5.04688 31.5586 4.38281V3.52734C31.5586 2.91797 31.3906 2.41406 31.0547 2.01562C30.7188 1.61719 30.2617 1.41797 29.6836 1.41797C29.1055 1.41797 28.6484 1.61719 28.3125 2.01562C27.9766 2.41406 27.8086 2.93359 27.8086 3.57422V4.42969ZM34.5 13.125C34.5 12.1016 34.8242 11.2617 35.4727 10.6055C36.1289 9.94141 36.9688 9.60938 37.9922 9.60938C39.0156 9.60938 39.8555 9.9375 40.5117 10.5938C41.168 11.25 41.4961 12.1211 41.4961 13.207V14.0391C41.4961 15.0625 41.168 15.9062 40.5117 16.5703C39.8633 17.2266 39.0312 17.5547 38.0156 17.5547C37 17.5547 36.1602 17.2305 35.4961 16.582C34.832 15.9258 34.5 15.0547 34.5 13.9688V13.125ZM36.1172 14.0391C36.1172 14.6562 36.2891 15.1641 36.6328 15.5625C36.9766 15.9531 37.4375 16.1484 38.0156 16.1484C38.5781 16.1484 39.0273 15.957 39.3633 15.5742C39.6992 15.1836 39.8672 14.6562 39.8672 13.9922V13.125C39.8672 12.5078 39.6953 12.0039 39.3516 11.6133C39.0156 11.2227 38.5625 11.0273 37.9922 11.0273C37.4375 11.0273 36.9844 11.2227 36.6328 11.6133C36.2891 11.9961 36.1172 12.5156 36.1172 13.1719V14.0391ZM30.1992 16.0195L28.9688 15.2461L37.3008 1.91016L38.5312 2.68359L30.1992 16.0195Z" fill="white"/>
</svg>
