<svg width="43" height="18" viewBox="0 0 43 18" fill="none" xmlns="http://www.w3.org/2000/svg">
<path d="M3.46875 7.72266H5.09766C6.12109 7.70703 6.92578 7.4375 7.51172 6.91406C8.09766 6.39062 8.39062 5.68359 8.39062 4.79297C8.39062 2.79297 7.39453 1.79297 5.40234 1.79297C4.46484 1.79297 3.71484 2.0625 3.15234 2.60156C2.59766 3.13281 2.32031 3.83984 2.32031 4.72266H0.152344C0.152344 3.37109 0.644531 2.25 1.62891 1.35938C2.62109 0.460938 3.87891 0.0117188 5.40234 0.0117188C7.01172 0.0117188 8.27344 0.4375 9.1875 1.28906C10.1016 2.14062 10.5586 3.32422 10.5586 4.83984C10.5586 5.58203 10.3164 6.30078 9.83203 6.99609C9.35547 7.69141 8.70312 8.21094 7.875 8.55469C8.8125 8.85156 9.53516 9.34375 10.043 10.0312C10.5586 10.7188 10.8164 11.5586 10.8164 12.5508C10.8164 14.082 10.3164 15.2969 9.31641 16.1953C8.31641 17.0938 7.01562 17.543 5.41406 17.543C3.8125 17.543 2.50781 17.1094 1.5 16.2422C0.5 15.375 0 14.2305 0 12.8086H2.17969C2.17969 13.707 2.47266 14.4258 3.05859 14.9648C3.64453 15.5039 4.42969 15.7734 5.41406 15.7734C6.46094 15.7734 7.26172 15.5 7.81641 14.9531C8.37109 14.4062 8.64844 13.6211 8.64844 12.5977C8.64844 11.6055 8.34375 10.8438 7.73438 10.3125C7.125 9.78125 6.24609 9.50781 5.09766 9.49219H3.46875V7.72266Z" fill="white"/>
<path d="M24.4922 10.0312C24.4922 12.5703 24.0586 14.457 23.1914 15.6914C22.3242 16.9258 20.9688 17.543 19.125 17.543C17.3047 17.543 15.957 16.9414 15.082 15.7383C14.207 14.5273 13.7539 12.7227 13.7227 10.3242V7.42969C13.7227 4.92188 14.1562 3.05859 15.0234 1.83984C15.8906 0.621094 17.25 0.0117188 19.1016 0.0117188C20.9375 0.0117188 22.2891 0.601562 23.1562 1.78125C24.0234 2.95312 24.4688 4.76562 24.4922 7.21875V10.0312ZM22.3242 7.06641C22.3242 5.23047 22.0664 3.89453 21.5508 3.05859C21.0352 2.21484 20.2188 1.79297 19.1016 1.79297C17.9922 1.79297 17.1836 2.21094 16.6758 3.04688C16.168 3.88281 15.9062 5.16797 15.8906 6.90234V10.3711C15.8906 12.2148 16.1562 13.5781 16.6875 14.4609C17.2266 15.3359 18.0391 15.7734 19.125 15.7734C20.1953 15.7734 20.9883 15.3594 21.5039 14.5312C22.0273 13.7031 22.3008 12.3984 22.3242 10.6172V7.06641Z" fill="white"/>
<path d="M27.082 3.52734C27.082 2.50391 27.4062 1.66016 28.0547 0.996094C28.7109 0.332031 29.5508 0 30.5742 0C31.6133 0 32.4531 0.335938 33.0938 1.00781C33.7422 1.67188 34.0664 2.53516 34.0664 3.59766V4.42969C34.0664 5.46094 33.7383 6.30469 33.082 6.96094C32.4336 7.60938 31.6055 7.93359 30.5977 7.93359C29.582 7.93359 28.7422 7.60938 28.0781 6.96094C27.4141 6.30469 27.082 5.43359 27.082 4.34766V3.52734ZM28.6992 4.42969C28.6992 5.03906 28.8711 5.54297 29.2148 5.94141C29.5586 6.33203 30.0195 6.52734 30.5977 6.52734C31.1523 6.52734 31.5977 6.33594 31.9336 5.95312C32.2773 5.57031 32.4492 5.04688 32.4492 4.38281V3.52734C32.4492 2.91797 32.2812 2.41406 31.9453 2.01562C31.6094 1.61719 31.1523 1.41797 30.5742 1.41797C29.9961 1.41797 29.5391 1.61719 29.2031 2.01562C28.8672 2.41406 28.6992 2.93359 28.6992 3.57422V4.42969ZM35.3906 13.125C35.3906 12.1016 35.7148 11.2617 36.3633 10.6055C37.0195 9.94141 37.8594 9.60938 38.8828 9.60938C39.9062 9.60938 40.7461 9.9375 41.4023 10.5938C42.0586 11.25 42.3867 12.1211 42.3867 13.207V14.0391C42.3867 15.0625 42.0586 15.9062 41.4023 16.5703C40.7539 17.2266 39.9219 17.5547 38.9062 17.5547C37.8906 17.5547 37.0508 17.2305 36.3867 16.582C35.7227 15.9258 35.3906 15.0547 35.3906 13.9688V13.125ZM37.0078 14.0391C37.0078 14.6562 37.1797 15.1641 37.5234 15.5625C37.8672 15.9531 38.3281 16.1484 38.9062 16.1484C39.4688 16.1484 39.918 15.957 40.2539 15.5742C40.5898 15.1836 40.7578 14.6562 40.7578 13.9922V13.125C40.7578 12.5078 40.5859 12.0039 40.2422 11.6133C39.9062 11.2227 39.4531 11.0273 38.8828 11.0273C38.3281 11.0273 37.875 11.2227 37.5234 11.6133C37.1797 11.9961 37.0078 12.5156 37.0078 13.1719V14.0391ZM31.0898 16.0195L29.8594 15.2461L38.1914 1.91016L39.4219 2.68359L31.0898 16.0195Z" fill="white"/>
</svg>
