<svg width="40" height="40" viewBox="0 0 40 40" fill="none" xmlns="http://www.w3.org/2000/svg">
<g clip-path="url(#clip0)">
<path d="M33.5956 39.3939H6.24668C4.6611 39.3985 3.13843 38.774 2.01275 37.6573C0.887076 36.5407 0.250319 35.0231 0.242188 33.4375V6.33047C0.251729 4.74583 0.889108 3.22961 2.01463 2.1141C3.14016 0.998591 4.66202 0.374794 6.24668 0.37942H33.5956C35.1809 0.375154 36.7032 0.999841 37.8286 2.11646C38.954 3.23309 39.5906 4.75048 39.5987 6.33581V33.4455C39.5888 35.0296 38.9514 36.5451 37.8262 37.6601C36.701 38.7751 35.1796 39.3985 33.5956 39.3939ZM6.24668 1.44831C4.94539 1.44333 3.6952 1.9544 2.77006 2.86952C1.84491 3.78465 1.32026 5.02921 1.31108 6.33047V33.4402C1.31956 34.7419 1.8439 35.9872 2.76912 36.9029C3.69434 37.8186 4.94493 38.33 6.24668 38.325H33.5956C34.8975 38.3296 36.1482 37.8177 37.0732 36.9014C37.9982 35.9852 38.522 34.7395 38.5298 33.4375V6.33047C38.5206 5.02944 37.9962 3.78509 37.0713 2.87C36.1465 1.95491 34.8966 1.44368 33.5956 1.44831H6.24668Z" fill="#48ACDE" stroke="#48ACDE" stroke-width="0.5"/>
<path d="M32.7983 14.7868H7.27859C7.13684 14.7868 7.0009 14.7305 6.90068 14.6302C6.80045 14.53 6.74414 14.3941 6.74414 14.2523C6.74414 10.403 12.6765 5.75464 20.0425 5.75464C27.4085 5.75464 33.3395 10.403 33.3395 14.2523C33.3395 14.3231 33.3254 14.3931 33.2982 14.4584C33.2709 14.5237 33.2309 14.5829 33.1806 14.6326C33.1302 14.6823 33.0705 14.7215 33.0049 14.748C32.9393 14.7745 32.8691 14.7876 32.7983 14.7868ZM7.85311 13.7179H32.2171C31.6667 10.4885 26.2741 6.82353 20.0358 6.82353C13.7975 6.82353 8.40493 10.4885 7.85311 13.7179Z" fill="#48ACDE"/>
<path d="M19.0219 14.1694L18.084 13.6577L21.2626 7.8269L21.594 13.8848L20.5264 13.9423L20.4008 11.6415L19.0219 14.1694Z" fill="#48ACDE"/>
</g>
<defs>
<clipPath id="clip0">
<rect width="40" height="40" fill="white"/>
</clipPath>
</defs>
</svg>
